<svg width="59" height="24" viewBox="0 0 59 24" fill="none" xmlns="http://www.w3.org/2000/svg">
<g clip-path="url(#clip0_7_75)">
<path d="M4.1 11.88C4.1 12.46 3.96 12.75 3.68 12.75C3.36 12.75 3.1 12.59 2.9 12.27C2.9 12.2633 2.84333 12.0533 2.73 11.64C2.69 11.5067 2.64667 11.31 2.6 11.05C2.43333 11.05 2.26333 11.1767 2.09 11.43C1.92333 11.6833 1.84 11.9 1.84 12.08C1.84 12.3267 2.03333 12.6533 2.42 13.06C3.08667 13.7667 3.44667 14.1533 3.5 14.22C3.88667 14.7133 4.08 15.19 4.08 15.65C4.08 15.8967 3.96 16.1733 3.72 16.48C3.50667 16.7467 3.27667 16.9533 3.03 17.1C2.83 17.22 2.63333 17.28 2.44 17.28C1.83333 17.28 1.35333 17.1067 1 16.76C0.966667 16.72 0.903333 16.6667 0.81 16.6C0.683333 16.52 0.543333 16.36 0.39 16.12C0.236667 15.8733 0.16 15.68 0.16 15.54C0.16 15.5133 0.166667 15.4733 0.18 15.42C0.193333 15.3667 0.2 15.3267 0.2 15.3C0.2 15.2867 0.193333 15.2667 0.18 15.24C0.166667 15.2133 0.16 15.1933 0.16 15.18C0.16 15.06 0.233333 15 0.38 15C0.566667 15 0.803333 15.1533 1.09 15.46C1.55667 15.96 1.92667 16.21 2.2 16.21C2.34667 16.21 2.46 16.15 2.54 16.03C2.62 15.91 2.66 15.7733 2.66 15.62C2.66 15.2333 2.48667 14.8433 2.14 14.45C1.82 14.1233 1.5 13.7933 1.18 13.46C0.833333 13.0333 0.66 12.58 0.66 12.1C0.66 11.4733 0.913333 10.9 1.42 10.38C1.78667 10 2.10667 9.81 2.38 9.81C2.44667 9.81 2.57 9.84667 2.75 9.92C2.93 9.98667 3.04667 10.0433 3.1 10.09L3.72 10.6C3.83333 10.6933 3.93 10.8933 4.01 11.2C4.07 11.4533 4.1 11.68 4.1 11.88ZM9.46008 13.32C9.46008 13.9933 9.36008 14.65 9.16008 15.29C8.92674 16.0567 8.59341 16.62 8.16008 16.98C7.93341 17.1667 7.74341 17.26 7.59008 17.26C7.55674 17.26 7.50341 17.2633 7.43008 17.27C7.36341 17.2767 7.31341 17.28 7.28008 17.28C7.20008 17.28 7.10008 17.2567 6.98008 17.21C6.90008 17.1767 6.79341 17.1467 6.66008 17.12C6.43341 17.0733 6.20674 16.9267 5.98008 16.68C5.59341 16.26 5.32341 15.8233 5.17008 15.37C5.02341 14.9567 4.95008 14.4467 4.95008 13.84C4.95008 13.2133 5.03008 12.58 5.19008 11.94C5.38341 11.1867 5.64674 10.6133 5.98008 10.22C6.21341 9.94667 6.50674 9.81 6.86008 9.81C6.95341 9.81 7.25008 9.90667 7.75008 10.1C7.89008 10.14 8.09675 10.2233 8.37008 10.35C8.49008 10.4367 8.61674 10.58 8.75008 10.78C9.22341 11.4867 9.46008 12.3333 9.46008 13.32ZM8.16008 13C8.16008 12.7733 8.12341 12.47 8.05008 12.09C7.97674 11.6833 7.89341 11.3933 7.80008 11.22C7.74008 11.1133 7.65675 11.0167 7.55008 10.93C7.45008 10.8433 7.37341 10.8 7.32008 10.8C7.27341 10.8 7.20341 10.8567 7.11008 10.97C7.05008 11.0433 6.96008 11.18 6.84008 11.38C6.38674 12.1467 6.16008 13.0267 6.16008 14.02C6.16008 14.4 6.21008 14.84 6.31008 15.34C6.44341 16.02 6.62008 16.36 6.84008 16.36C7.30008 16.36 7.65341 15.8967 7.90008 14.97C8.07341 14.31 8.16008 13.6533 8.16008 13ZM14.1649 14.32C14.1649 15.5067 14.0216 16.2833 13.7349 16.65C13.4016 17.0833 13.0016 17.3 12.5349 17.3C12.3749 17.3 12.0949 17.2067 11.6949 17.02C11.2016 16.7867 10.8549 16.4767 10.6549 16.09C10.4816 15.75 10.3949 15.2867 10.3949 14.7V13.91C10.3949 13.57 10.4116 13.09 10.4449 12.47C10.4849 11.7967 10.5083 11.3133 10.5149 11.02C10.5216 10.38 10.5816 10.06 10.6949 10.06C10.8616 10.06 11.0516 10.0933 11.2649 10.16C11.5383 10.24 11.6749 10.34 11.6749 10.46C11.6749 10.5133 11.6683 10.5933 11.6549 10.7C11.6416 10.8 11.6349 10.8767 11.6349 10.93C11.6349 10.9767 11.6383 11.05 11.6449 11.15C11.6516 11.2433 11.6549 11.3133 11.6549 11.36C11.6549 11.68 11.6349 12.16 11.5949 12.8C11.5549 13.44 11.5349 13.92 11.5349 14.24C11.5349 15.56 11.7549 16.22 12.1949 16.22C12.5616 16.22 12.8049 15.9467 12.9249 15.4C12.9849 15.1267 13.0149 14.7067 13.0149 14.14C13.0149 13.74 13.0049 13.14 12.9849 12.34C12.9649 11.5333 12.9549 10.93 12.9549 10.53C12.9549 10.25 12.9683 10.08 12.9949 10.02C13.0283 9.95333 13.0883 9.92 13.1749 9.92C13.3416 9.92 13.5283 9.94333 13.7349 9.99C14.0149 10.05 14.1549 10.1333 14.1549 10.24C14.1549 10.2733 14.1483 10.32 14.1349 10.38C14.1283 10.44 14.1249 10.4833 14.1249 10.51C14.1249 10.53 14.1283 10.5633 14.1349 10.61C14.1349 10.6567 14.1349 10.69 14.1349 10.71C14.1349 10.79 14.1316 10.91 14.1249 11.07C14.1183 11.23 14.1149 11.35 14.1149 11.43C14.1149 11.75 14.1216 12.2333 14.1349 12.88C14.1549 13.52 14.1649 14 14.1649 14.32ZM18.5242 16.56C18.5242 16.68 18.4676 16.7467 18.3542 16.76C18.3409 16.76 18.1976 16.7867 17.9242 16.84C17.5376 16.9067 16.9609 17.0267 16.1942 17.2C16.1009 17.2267 16.0542 17.24 16.0542 17.24C16.0276 17.24 15.9842 17.21 15.9242 17.15C15.8642 17.09 15.7909 17.0333 15.7042 16.98C15.5776 16.8933 15.4942 16.7767 15.4542 16.63C15.4342 16.5433 15.4242 16.3933 15.4242 16.18V15.77C15.4242 15.1567 15.4409 14.24 15.4742 13.02C15.5076 11.7933 15.5242 10.8733 15.5242 10.26V10.13C15.5242 10.1167 15.5209 10.0967 15.5142 10.07C15.5076 10.0367 15.5042 10.0133 15.5042 10C15.5042 9.92 15.6642 9.88 15.9842 9.88C16.2442 9.88 16.4242 9.99 16.5242 10.21C16.5842 10.35 16.6209 10.5733 16.6342 10.88C16.6409 11.0667 16.6442 11.2767 16.6442 11.51C16.6442 11.91 16.6376 12.51 16.6242 13.31C16.6176 14.1033 16.6142 14.7 16.6142 15.1C16.6142 15.16 16.6109 15.2533 16.6042 15.38C16.5976 15.5 16.5942 15.59 16.5942 15.65C16.5942 15.7167 16.6442 15.75 16.7442 15.75C16.8376 15.75 16.9742 15.7467 17.1542 15.74C17.3342 15.7267 17.4709 15.72 17.5642 15.72C17.8242 15.72 18.0076 15.7467 18.1142 15.8C18.2676 15.8733 18.3809 16.02 18.4542 16.24C18.5009 16.3733 18.5242 16.48 18.5242 16.56ZM41.1273 17.78C41.1273 17.82 41.0839 17.88 40.9973 17.96C40.9173 18.04 40.8539 18.08 40.8073 18.08C40.7673 18.08 40.7073 18.07 40.6273 18.05C40.5473 18.03 40.4873 18.02 40.4473 18.02H40.2473C40.1473 18.02 40.0539 17.9733 39.9673 17.88C39.6873 17.5667 39.4673 17.3333 39.3073 17.18C39.1206 17.2467 38.9006 17.28 38.6473 17.28C38.5606 17.28 38.4606 17.2567 38.3473 17.21C38.2673 17.1767 38.1606 17.1467 38.0273 17.12C37.8006 17.0733 37.5739 16.9267 37.3473 16.68C36.9606 16.2667 36.6873 15.83 36.5273 15.37C36.3873 14.9567 36.3173 14.4467 36.3173 13.84C36.3173 13.0333 36.4539 12.2267 36.7273 11.42C37.0939 10.3467 37.5939 9.81 38.2273 9.81C38.3206 9.81 38.6173 9.90667 39.1173 10.1C39.2639 10.14 39.4706 10.2233 39.7373 10.35C39.8573 10.4367 39.9839 10.58 40.1173 10.78C40.5906 11.4867 40.8273 12.3333 40.8273 13.32C40.8273 14.5 40.5606 15.5267 40.0273 16.4C40.7606 17.1667 41.1273 17.6267 41.1273 17.78ZM39.5273 13.07C39.5273 12.6433 39.4706 12.2033 39.3573 11.75C39.2039 11.1167 38.9806 10.8 38.6873 10.8C38.5806 10.8 38.4206 10.9933 38.2073 11.38C38.0406 11.6867 37.9406 11.8767 37.9073 11.95C37.8206 12.13 37.7473 12.3333 37.6873 12.56C37.5806 12.9667 37.5273 13.4533 37.5273 14.02C37.5273 14.3933 37.5773 14.83 37.6773 15.33C37.8106 16.0167 37.9873 16.36 38.2073 16.36C38.3006 16.36 38.4106 16.3167 38.5373 16.23C38.3839 15.95 38.3073 15.8 38.3073 15.78C38.3073 15.7267 38.3506 15.6767 38.4373 15.63C38.5239 15.5833 38.6006 15.56 38.6673 15.56C38.7739 15.56 38.8806 15.5933 38.9873 15.66C39.3473 14.7267 39.5273 13.8633 39.5273 13.07ZM45.5321 14.32C45.5321 15.5067 45.3888 16.2833 45.1021 16.65C44.7688 17.0833 44.3688 17.3 43.9021 17.3C43.7421 17.3 43.4621 17.2067 43.0621 17.02C42.5688 16.7867 42.2221 16.4767 42.0221 16.09C41.8488 15.75 41.7621 15.2867 41.7621 14.7V13.91C41.7621 13.57 41.7788 13.09 41.8121 12.47C41.8521 11.7967 41.8754 11.3133 41.8821 11.02C41.8888 10.38 41.9488 10.06 42.0621 10.06C42.2288 10.06 42.4188 10.0933 42.6321 10.16C42.9054 10.24 43.0421 10.34 43.0421 10.46C43.0421 10.5133 43.0354 10.5933 43.0221 10.7C43.0088 10.8 43.0021 10.8767 43.0021 10.93C43.0021 10.9767 43.0054 11.05 43.0121 11.15C43.0188 11.2433 43.0221 11.3133 43.0221 11.36C43.0221 11.68 43.0021 12.16 42.9621 12.8C42.9221 13.44 42.9021 13.92 42.9021 14.24C42.9021 15.56 43.1221 16.22 43.5621 16.22C43.9288 16.22 44.1721 15.9467 44.2921 15.4C44.3521 15.1267 44.3821 14.7067 44.3821 14.14C44.3821 13.74 44.3721 13.14 44.3521 12.34C44.3321 11.5333 44.3221 10.93 44.3221 10.53C44.3221 10.25 44.3354 10.08 44.3621 10.02C44.3954 9.95333 44.4554 9.92 44.5421 9.92C44.7088 9.92 44.8954 9.94333 45.1021 9.99C45.3821 10.05 45.5221 10.1333 45.5221 10.24C45.5221 10.2733 45.5154 10.32 45.5021 10.38C45.4954 10.44 45.4921 10.4833 45.4921 10.51C45.4921 10.53 45.4954 10.5633 45.5021 10.61C45.5021 10.6567 45.5021 10.69 45.5021 10.71C45.5021 10.79 45.4988 10.91 45.4921 11.07C45.4854 11.23 45.4821 11.35 45.4821 11.43C45.4821 11.75 45.4888 12.2333 45.5021 12.88C45.5221 13.52 45.5321 14 45.5321 14.32ZM49.9614 16.84C49.8614 16.88 49.4781 16.9533 48.8114 17.06C48.1447 17.1667 47.7347 17.22 47.5814 17.22C47.5347 17.22 47.4281 17.17 47.2614 17.07C47.1214 16.9833 47.0281 16.9133 46.9814 16.86C46.8747 16.7267 46.8214 16.16 46.8214 15.16C46.8214 14.0267 46.8281 13.0967 46.8414 12.37C46.8481 11.95 46.8781 11.32 46.9314 10.48C46.9581 10.2533 47.0081 10.1167 47.0814 10.07C47.1281 10.0367 47.1881 10.02 47.2614 10.02C47.3014 10.02 47.3514 10.0367 47.4114 10.07C47.4714 10.0967 47.5147 10.11 47.5414 10.11C47.5614 10.11 47.6281 10.0967 47.7414 10.07C48.2214 9.95667 48.7014 9.9 49.1814 9.9C49.3347 9.9 49.4714 10.01 49.5914 10.23C49.6914 10.4167 49.7414 10.5933 49.7414 10.76C49.7414 10.86 49.6514 10.93 49.4714 10.97C49.2047 10.9967 48.8047 11.0467 48.2714 11.12C48.0914 11.1467 48.0014 11.2067 48.0014 11.3C48.0014 11.4267 47.9914 11.6133 47.9714 11.86C47.9514 12.1 47.9414 12.2833 47.9414 12.41C47.9414 12.6767 47.9814 12.81 48.0614 12.81C48.0947 12.81 48.1614 12.8033 48.2614 12.79C48.6681 12.7367 49.0014 12.71 49.2614 12.71C49.6214 12.71 49.8014 12.9533 49.8014 13.44C49.8014 13.4667 49.8047 13.51 49.8114 13.57C49.8181 13.6233 49.8214 13.6633 49.8214 13.69C49.8214 13.7767 49.5014 13.8433 48.8614 13.89C48.2281 13.9367 47.9114 14.0267 47.9114 14.16C47.9114 14.1733 47.9147 14.2 47.9214 14.24C47.9281 14.2733 47.9314 14.3 47.9314 14.32C47.9314 14.3933 47.9314 14.51 47.9314 14.67C47.9247 14.8233 47.9214 14.94 47.9214 15.02C47.9214 15.0933 47.9147 15.21 47.9014 15.37C47.8947 15.5233 47.8914 15.64 47.8914 15.72C47.8914 15.8667 47.9214 15.94 47.9814 15.94C48.0281 15.94 48.1181 15.93 48.2514 15.91C48.4381 15.8833 48.7214 15.8433 49.1014 15.79C49.2347 15.77 49.3214 15.76 49.3614 15.76C49.4481 15.76 49.5447 15.8067 49.6514 15.9C49.7381 15.9867 49.8014 16.0733 49.8414 16.16C49.8814 16.24 49.9014 16.3433 49.9014 16.47C49.9014 16.49 49.9014 16.52 49.9014 16.56C49.8947 16.6 49.8914 16.63 49.8914 16.65C49.8914 16.67 49.9014 16.7 49.9214 16.74C49.9481 16.78 49.9614 16.8133 49.9614 16.84ZM54.5688 11.88C54.5688 12.46 54.4288 12.75 54.1488 12.75C53.8288 12.75 53.5688 12.59 53.3688 12.27C53.3688 12.2633 53.3121 12.0533 53.1988 11.64C53.1588 11.5067 53.1154 11.31 53.0688 11.05C52.9021 11.05 52.7321 11.1767 52.5588 11.43C52.3921 11.6833 52.3088 11.9 52.3088 12.08C52.3088 12.3267 52.5021 12.6533 52.8888 13.06C53.5554 13.7667 53.9154 14.1533 53.9688 14.22C54.3554 14.7133 54.5488 15.19 54.5488 15.65C54.5488 15.8967 54.4288 16.1733 54.1888 16.48C53.9754 16.7467 53.7454 16.9533 53.4988 17.1C53.2988 17.22 53.1021 17.28 52.9088 17.28C52.3021 17.28 51.8221 17.1067 51.4688 16.76C51.4354 16.72 51.3721 16.6667 51.2788 16.6C51.1521 16.52 51.0121 16.36 50.8588 16.12C50.7054 15.8733 50.6288 15.68 50.6288 15.54C50.6288 15.5133 50.6354 15.4733 50.6488 15.42C50.6621 15.3667 50.6688 15.3267 50.6688 15.3C50.6688 15.2867 50.6621 15.2667 50.6488 15.24C50.6354 15.2133 50.6288 15.1933 50.6288 15.18C50.6288 15.06 50.7021 15 50.8488 15C51.0354 15 51.2721 15.1533 51.5588 15.46C52.0254 15.96 52.3954 16.21 52.6688 16.21C52.8154 16.21 52.9288 16.15 53.0088 16.03C53.0888 15.91 53.1288 15.7733 53.1288 15.62C53.1288 15.2333 52.9554 14.8433 52.6088 14.45C52.2888 14.1233 51.9688 13.7933 51.6488 13.46C51.3021 13.0333 51.1287 12.58 51.1287 12.1C51.1287 11.4733 51.3821 10.9 51.8888 10.38C52.2554 10 52.5754 9.81 52.8488 9.81C52.9154 9.81 53.0388 9.84667 53.2188 9.92C53.3988 9.98667 53.5154 10.0433 53.5688 10.09L54.1888 10.6C54.3021 10.6933 54.3988 10.8933 54.4788 11.2C54.5388 11.4533 54.5688 11.68 54.5688 11.88ZM58.9388 10.2C58.9388 10.6067 58.8588 10.8267 58.6988 10.86C58.6722 10.8667 58.5888 10.8733 58.4488 10.88C57.9355 10.9133 57.6788 10.9733 57.6788 11.06C57.6788 11.0733 57.6822 11.0933 57.6888 11.12C57.6888 11.1467 57.6888 11.1667 57.6888 11.18C57.6888 11.3933 57.6822 11.68 57.6688 12.04C57.6488 12.4733 57.6388 12.76 57.6388 12.9C57.6255 13.56 57.6188 14.1067 57.6188 14.54C57.6188 14.72 57.6222 14.9867 57.6288 15.34C57.6355 15.6933 57.6388 15.96 57.6388 16.14C57.6388 16.3467 57.6255 16.6033 57.5988 16.91C57.6388 16.99 57.6588 17.0333 57.6588 17.04C57.6588 17.1467 57.5688 17.2 57.3888 17.2C56.7755 17.2 56.4688 16.98 56.4688 16.54V16.04C56.4688 15.9333 56.4655 15.7833 56.4588 15.59C56.4522 15.3967 56.4488 15.25 56.4488 15.15V12.45C56.4488 12.35 56.4555 12.2 56.4688 12C56.4822 11.8 56.4888 11.65 56.4888 11.55V11.2C55.9555 11.2667 55.6622 11.3 55.6088 11.3C55.5822 11.3 55.5622 11.2633 55.5488 11.19C55.5288 11.09 55.5155 11.0333 55.5088 11.02C55.5022 11.0067 55.4555 10.9333 55.3688 10.8C55.2888 10.6867 55.2488 10.62 55.2488 10.6C55.2488 10.5933 55.2522 10.5833 55.2588 10.57C55.2655 10.5567 55.2688 10.5467 55.2688 10.54C55.2688 10.52 55.2622 10.4867 55.2488 10.44C55.2355 10.3933 55.2288 10.36 55.2288 10.34C55.2288 10.2067 55.4722 10.1 55.9588 10.02C56.0722 10 56.2288 9.98 56.4288 9.96L56.5488 9.95C56.5955 9.94333 56.6088 9.94 56.5888 9.94C56.9288 9.90667 57.3122 9.84667 57.7388 9.76C57.8122 9.74667 57.8555 9.74 57.8688 9.74C57.8955 9.74 57.9322 9.74667 57.9788 9.76C58.0322 9.76667 58.0688 9.77 58.0888 9.77C58.1155 9.77 58.1555 9.76 58.2088 9.74C58.2622 9.72 58.3022 9.71 58.3288 9.71C58.3488 9.71 58.3755 9.71667 58.4088 9.73C58.4488 9.73667 58.4788 9.74 58.4988 9.74C58.5055 9.74 58.5155 9.73667 58.5288 9.73C58.5422 9.73 58.5522 9.73 58.5588 9.73C58.6322 9.73 58.7122 9.79 58.7988 9.91C58.8922 10.0233 58.9388 10.12 58.9388 10.2Z" fill="#FE931C"/>
<path d="M21.9531 23C21.912 22.9184 23.5403 19.6191 23.6497 19.6055C23.6497 19.6055 22.8014 19.1633 23.6497 18.6191C23.6497 18.6191 23.2461 17.6463 23.4171 16.0884C23.4171 16.0884 24.1149 16.2721 24.6007 16.5238C25.0864 16.7755 25.2848 16.898 26.0168 16.8708C26.0168 16.8708 25.6269 17.7483 24.8812 18.0952C24.8812 18.0952 25.0248 18.1293 25.3532 17.9864C25.3532 17.9864 25.0454 18.5034 24.2312 18.7143C24.2312 18.7143 25.059 19.0748 26.0168 18.2517C26.0168 18.2517 25.7295 18.8844 24.7443 19.2109C24.7443 19.2109 25.5379 19.3197 26.0716 19C26.0716 19 24.8333 19.8844 25.8047 20.2925L24.0397 21.8299L21.9463 22.9932L21.9531 23Z" fill="#546670"/>
<path d="M29.4101 18.5579C29.4101 18.5579 27.8366 18.0137 27.734 16.5239C27.734 16.5239 27.2277 17.7688 29.4101 18.5579Z" fill="#546670"/>
<path d="M20.7969 17.5918C21.0774 17.7007 21.1527 17.4422 21.1527 17.4422C21.1527 17.4422 20.7627 17.7823 20.5985 17.068C20.5712 16.9592 20.5438 16.8435 20.5096 16.7347L19.7023 14.0748C19.7023 14.0748 19.6544 13.8775 19.4902 13.8095L20.5233 17.2789C20.5643 17.415 20.6669 17.5374 20.7969 17.585V17.5918Z" fill="#546670"/>
<path d="M18.9361 13.1768C18.9361 13.1768 18.6693 13.0136 18.553 12.9047C18.4846 12.8367 18.3751 12.9047 18.4093 13C18.4435 13.0952 18.594 13.1836 18.9361 13.4694C19.0182 13.5374 19.1276 13.5782 19.2371 13.5918C19.4287 13.6054 19.7502 13.653 20.0033 13.8367C20.0649 13.8843 20.1402 13.9047 20.2154 13.8979C20.2633 13.8979 20.318 13.8843 20.3591 13.8571C20.3591 13.8571 19.9623 13.7415 19.7502 13.6122C19.6886 13.5714 19.6202 13.5442 19.545 13.5306C19.4355 13.5102 19.2713 13.4762 19.155 13.4762C19.0934 13.4762 19.0387 13.4558 18.9908 13.4217C18.8403 13.3197 18.5803 13.1088 18.9429 13.1836L18.9361 13.1768Z" fill="#546670"/>
<path d="M18.6693 12.8708C18.594 12.8572 18.4367 12.796 18.2383 12.5851C18.1972 12.5443 18.1904 12.483 18.2177 12.4286C18.2656 12.347 18.3614 12.2857 18.5461 12.6191C18.5598 12.6395 18.5666 12.6667 18.5735 12.6871C18.5803 12.7279 18.6077 12.8028 18.6761 12.8572C18.683 12.8572 18.6761 12.8776 18.6693 12.8708Z" fill="#546670"/>
<path d="M18.7514 12.5035C18.7514 12.5035 18.5051 12.3538 18.3956 12.0613C18.3272 11.8708 18.2109 11.9524 18.1357 12.0341C18.0741 12.1021 18.0946 12.2177 18.1835 12.2586C18.2041 12.2654 18.2246 12.2722 18.252 12.279C18.293 12.2926 18.3341 12.3062 18.3751 12.3266C18.4572 12.3674 18.5872 12.4422 18.6214 12.5035C18.6761 12.5987 18.7514 12.5035 18.7514 12.5035Z" fill="#546670"/>
<path d="M18.4914 11.9252L18.3546 11.7347C18.3546 11.7347 18.3546 11.7007 18.3751 11.7007C18.464 11.7143 18.683 11.7551 18.9771 11.9252C19.0045 11.9388 19.0319 11.9456 19.0592 11.9524L19.6613 11.9864C19.6955 11.9864 19.7365 11.9864 19.7707 11.966C19.8665 11.9252 20.106 11.8572 20.318 12.1633C20.3454 12.1973 20.3796 12.2245 20.4138 12.2449C20.5643 12.3061 20.9474 12.4762 21.009 12.6259C21.0843 12.8163 20.7285 13.1769 20.6669 14.5034C20.6669 14.5034 20.968 13.3606 22.5073 13.4966C22.5209 13.4966 22.5346 13.5102 22.5346 13.5306C22.5004 13.7415 22.3909 14.9116 24.1834 13.7551C24.1834 13.7551 24.1971 13.7551 24.1971 13.7619C24.1765 13.8844 24.0465 14.6055 24.4502 14.8163C24.4502 14.8163 24.5391 13.8231 24.6828 13.7415C24.7649 13.6939 24.3202 13.483 24.1286 13.5238C24.0944 13.5238 24.0671 13.517 24.0465 13.4898C23.9987 13.3946 23.855 13.2177 23.4514 13.1769C23.3761 13.1701 23.3077 13.1497 23.2393 13.1293L21.2074 12.3742C21.1458 12.3538 21.0911 12.3197 21.0432 12.2721C20.8585 12.0953 20.3454 11.6259 20.147 11.5306C20.0444 11.4762 19.7365 11.1021 19.6818 11.0408C19.7297 11.1633 20.0854 12.1633 18.6693 11.4218C18.5735 11.3674 18.4572 11.347 18.3477 11.3742C18.2383 11.4014 18.1151 11.4694 18.0741 11.6463C18.0604 11.7143 18.0946 11.7755 18.1562 11.8027L18.4914 11.9388V11.9252Z" fill="#546670"/>
<path d="M25.5379 13.3062C25.5927 13.2585 25.6748 13.2517 25.7432 13.2925C25.921 13.4014 26.3042 13.83 26.3315 13.898C26.4478 14.2109 25.2985 13.8572 25.2985 13.8572C25.2985 13.8572 25.0043 14.3946 24.9222 14.3674C24.9222 14.3674 24.6554 14.5647 24.758 13.7143C24.758 13.7143 24.9291 13.4354 25.2916 13.5306L25.5448 13.313L25.5379 13.3062Z" fill="#546670"/>
<path d="M18.7514 10.6258C18.7514 10.6258 18.724 10.6258 18.7308 10.6394C18.7856 10.8163 18.9498 11.3741 18.9498 11.4081C18.9498 11.4489 18.9771 10.9115 18.7514 10.6326V10.6258Z" fill="#546670"/>
<path d="M19.1208 10.9252C19.1208 10.9252 19.0934 11.2245 19.1961 11.3537C19.1961 11.3537 19.2166 11 19.1208 10.9252Z" fill="#546670"/>
<path d="M19.1824 10.6666C19.2234 10.7007 19.3124 10.8095 19.3329 11.0612C19.3329 11.136 19.3534 11.2109 19.3739 11.2857C19.3876 11.3265 19.4081 11.3741 19.4287 11.3945V11.4081C19.4013 11.4149 19.3329 11.4081 19.2781 11.2177C19.2576 11.1496 19.2439 11.0748 19.2371 11.0068C19.2303 10.9183 19.2097 10.7687 19.1755 10.6734C19.1755 10.6734 19.1755 10.6598 19.1824 10.6666Z" fill="#546670"/>
<path d="M18.5393 10.3061C18.464 10.2857 18.3204 10.1837 18.2656 9.70747C18.2656 9.68706 18.252 9.65985 18.2451 9.64624C18.2246 9.61903 18.1972 9.57822 18.1562 9.55781C18.1083 9.5306 18.0809 9.19726 18.0741 9.08162C18.0741 9.06121 18.0946 9.0476 18.1151 9.06121C18.163 9.09522 18.2314 9.20407 18.2451 9.50339C18.2451 9.50339 18.7172 9.59182 19.3397 9.39454C19.3397 9.39454 19.2439 9.0272 19.2781 8.86393C19.2781 8.86393 19.3124 8.81631 19.415 8.82311C19.4355 8.82311 19.456 8.83672 19.4629 8.86393C19.4765 8.94556 19.5244 9.16325 19.5313 9.33332C19.5313 9.36733 19.5244 9.40135 19.4971 9.42856H19.4902C19.4902 9.42856 19.4697 9.48978 19.4765 9.51699C19.5039 9.59182 19.5518 9.74829 19.5723 9.95237C19.5792 10.0476 19.5313 10.1428 19.4492 10.1973C19.3945 10.2313 19.326 10.2653 19.2234 10.2925C19.1892 10.2993 19.155 10.2789 19.1413 10.2449C19.1413 10.2449 19.2713 10.2857 19.2987 10.136C19.3192 10.0476 19.2781 9.87754 19.2029 9.61903C19.2029 9.60543 19.1824 9.59863 19.1687 9.59863C19.0661 9.61903 18.7035 9.68706 18.4709 9.64624C18.4435 9.64624 18.4161 9.66665 18.423 9.69386L18.5735 10.2721C18.5735 10.2721 18.5598 10.3197 18.5324 10.3129L18.5393 10.3061Z" fill="#546670"/>
<path d="M20.3864 6.40137C20.3864 6.40137 20.6601 6.15647 21.4058 5.43538C21.9599 4.89796 21.1869 3.60545 21.1869 3.60545C21.1869 3.60545 20.9201 3.05442 21.4195 2.12925C21.4468 2.07483 21.4674 2.02041 21.481 1.95919C21.5221 1.80272 21.5837 1.4898 21.5495 1.31973C21.5495 1.31973 21.05 2.08163 20.8859 2.22449C20.7422 2.35374 20.4617 2.87075 20.4001 3.13606C20.4001 3.16327 20.3591 3.17007 20.3454 3.14286C20.2086 2.88436 19.8323 2.05442 20.017 1C20.017 1 18.984 1.61905 19.3739 2.91157C19.3739 2.91157 19.5244 3.79592 19.2439 4.08164C19.2303 4.09524 19.2166 4.08164 19.2097 4.07483C19.1755 3.91837 19.0182 3.19728 18.7856 2.86395C18.7856 2.86395 18.4572 3.20408 18.6693 3.87756C18.8471 4.42858 18.6214 4.96599 18.5461 5.12926C18.5461 5.14286 18.5188 5.13606 18.5188 5.12926C18.5119 4.96599 18.4572 4.50341 18.0946 4.21769C18.0946 4.21769 18.0741 5.31293 17.6499 5.7279C17.2258 6.14286 17.9099 7.11566 17.9099 7.11566L20.3864 6.40817V6.40137Z" fill="#FB572A"/>
<path d="M19.9554 3.18372C19.9554 3.18372 20.9406 3.86399 20.5301 5.47624C20.1196 7.08848 19.3192 7.95923 19.3192 7.95923L17.4994 8.42862C17.4994 8.42862 17 7.99325 17 7.05447C17 6.57148 17.1642 6.10209 17.4378 5.70753C17.5952 5.48984 17.7799 5.19052 17.9099 4.8844C17.9099 4.8844 18.1767 5.68032 17.992 6.51025C17.992 6.53066 18.0194 6.54426 18.0262 6.52386C18.2246 6.20413 18.5324 5.61909 18.9908 5.17692C18.9908 5.17692 20.1333 4.46263 19.9486 3.18372H19.9554Z" fill="#FE931C"/>
<path d="M19.6407 8.48983C19.8118 8.25854 20.0581 7.82996 20.0991 7.30615C20.1265 6.98643 20.2291 6.6735 20.3933 6.39459C20.4549 6.28574 20.5233 6.19051 20.5712 6.12928C20.7353 5.9184 20.4822 5.02724 20.448 4.9184C20.448 4.932 20.3317 5.25173 19.9554 5.76193C19.7502 6.04085 19.586 6.34697 19.4629 6.6667C19.4013 6.82996 19.3397 7.00683 19.3124 7.1633" fill="#FFBC28"/>
<path d="M19.3124 7.16332C19.1892 6.8708 18.8198 6.35379 19.1276 5.65991C19.1276 5.65991 18.4025 6.15651 18.0467 7.17692C18.0193 7.25855 17.8962 7.23815 17.8962 7.14971C17.8962 7.04767 17.8962 6.95243 17.9099 6.91161C17.9099 6.91161 17.4926 7.58509 17.4515 8.25856C17.4515 8.35379 17.4789 8.44223 17.5405 8.51026C17.5747 8.55107 17.6157 8.59869 17.6704 8.64631C17.8415 8.80958 18.0672 8.89801 18.3067 8.90481C18.5461 8.91162 18.8882 8.89121 19.2371 8.78237C19.3876 8.73475 19.4355 8.71434 19.6202 8.51706C19.6476 8.48305 19.8597 7.91162 19.5997 7.53747L19.3124 7.16332Z" fill="#FECB2E"/>
<path d="M18.5872 7.02045C18.5872 7.02045 18.6145 7.00685 18.6214 7.02045C18.7172 7.12249 19.114 7.57827 19.1482 7.95923C19.1824 8.34018 19.0661 8.53746 18.895 8.79596C18.8608 8.85039 18.8061 8.8844 18.7445 8.8912L18.6145 8.91161C18.6145 8.91161 18.553 8.91161 18.5325 8.8844C18.4298 8.79596 18.1288 8.52385 18.0878 8.27896C18.0467 8.05447 18.0467 7.74834 18.594 7.02725L18.5872 7.02045Z" fill="#F49423"/>
<path d="M34.9584 11.449C34.9584 11.449 35.9162 8.68027 32.5024 7.08843C32.2629 6.97959 31.9961 6.95238 31.7498 7.02721C31.3872 7.12925 30.9015 7.37415 30.6689 7.96598C30.6689 7.96598 32.2971 7.68027 34.9584 11.449Z" fill="#546670"/>
<path d="M35.0405 11.6599C35.0405 11.6599 35.0131 11.6599 35.02 11.6735C35.2389 12.1701 35.321 12.4354 35.3415 12.5782C35.3483 12.6394 35.2731 12.6735 35.2389 12.6258C35.0679 12.4082 34.9105 12.0136 34.8421 11.8639C33.6722 9.26529 31.613 8.551 30.9836 8.39454C30.8673 8.36733 30.7647 8.2925 30.6963 8.19726C30.0532 7.2993 29.157 7.14284 28.5549 7.14964C28.2129 7.14964 27.8845 7.25168 27.5972 7.42855C26.3726 8.17685 24.9906 8.85713 24.6417 9.02719C24.587 9.0544 24.5186 9.02719 24.5049 8.96597C24.457 8.81631 24.457 8.49658 24.9154 7.93195C25.5858 7.10202 25.7774 6.08841 25.6748 6.12923C25.5995 6.15644 25.3874 6.38773 25.2848 6.50338C25.2711 6.52379 25.2438 6.50338 25.2438 6.48297C25.5379 5.02039 24.4844 3.95236 24.2039 3.70066C24.1834 3.68025 24.2039 3.64623 24.2244 3.64623C25.6748 3.68705 25.9963 2.61222 25.9963 2.61222C26.1058 2.26528 26.5983 1.99317 26.8993 1.85712C27.0362 1.79589 27.1798 1.76188 27.3303 1.76188C27.604 1.76188 27.8982 1.72786 28.076 1.70065C28.1924 1.68025 28.3155 1.70065 28.4181 1.76188C29.3212 2.27208 29.2528 2.63263 29.0338 3.09521C29.027 3.10882 29.0475 3.12242 29.0612 3.10882C29.1912 2.97276 29.2459 2.8231 29.2664 2.69385C29.287 2.50338 29.2254 2.3129 29.1022 2.16324C28.897 1.91834 28.4113 1.47616 27.5219 1.36052C26.5641 1.23807 24.9769 1.95235 24.2928 2.28569C24.1286 2.36732 23.9781 2.46256 23.8344 2.5646C23.5403 2.77548 22.993 3.01358 22.7604 3.10882C22.7193 3.12923 22.7125 3.18365 22.7535 3.21086C25.4764 4.91834 24.9222 7.10882 24.8401 7.38774C24.8401 7.40134 24.8196 7.40814 24.8059 7.40134C24.3681 7.09522 24.0055 5.74147 24.0055 5.74147C23.5813 4.35372 23.1708 3.82991 23.0203 3.68025C23.0203 3.68025 23.0067 3.68025 23.0135 3.68705C23.3692 4.22447 24.0944 6.59862 24.0944 6.59862C24.197 6.99998 24.5049 7.42855 24.6554 7.62583C24.7033 7.69386 24.7101 7.78229 24.6554 7.85032C24.0876 8.63944 24.2107 9.15645 24.3407 9.34012C24.3886 9.40815 24.3886 9.50339 24.3407 9.57141C23.3966 10.9524 23.3624 13.9456 23.3624 13.9456L25.7979 13.4762C23.8413 9.22447 27.9461 7.71427 27.9461 7.71427C30.1148 7.16325 30.621 8.68025 30.6689 8.83672C30.6689 8.83672 30.6689 8.84352 30.6621 8.83672L30.5458 8.77549C31.5651 10.1769 31.3667 10.4694 31.5993 12.2653C31.8114 13.9048 34.5069 13.3061 35.0336 13.1769C35.0679 13.1701 35.0884 13.2041 35.0747 13.2313C34.7326 13.7959 34.9789 14.3061 34.9789 14.3061C35.3757 15.6122 34.7668 15.3333 34.7668 15.3333C34.8079 14.5918 34.6916 14.2109 34.5753 14.0204C34.4932 13.8911 34.3358 13.8163 34.1853 13.8435C33.6038 13.9456 32.9265 13.8707 32.6666 13.8299C32.5981 13.8231 32.5366 13.8639 32.5297 13.932C32.4545 14.4014 32.7281 14.932 32.8376 15.1292C32.8718 15.1973 32.906 15.2653 32.9334 15.3333C33.1523 15.8843 33.1728 16.1905 33.1318 16.3537C33.1044 16.4694 32.9881 16.5442 32.8718 16.5306L32.4613 16.483C32.3861 16.4762 32.3382 16.4014 32.3587 16.3265C32.4613 15.9864 32.4887 15.483 32.3929 15.102C32.3245 14.8231 32.2766 14.415 32.2561 14.1496C32.2356 13.9388 32.1261 13.7483 31.9482 13.6258C31.7498 13.4898 31.5993 13.4966 31.4967 13.5306C31.4146 13.5578 31.3599 13.6258 31.3393 13.7075C31.2436 14.1565 30.7852 15.3673 30.7852 15.3673C30.1216 16.6394 31.442 16.8707 31.7703 16.9048C31.784 16.9048 31.7909 16.932 31.7703 16.932C30.9494 17.1973 30.2995 16.7483 30.0874 16.5714C30.0463 16.5374 30.0258 16.4762 30.0532 16.4218C30.8126 14.6667 31.1752 12.6258 31.1752 12.6258C31.3393 10.9592 30.8399 9.74828 30.5047 9.15645C30.3268 8.83672 30.06 8.57141 29.7316 8.40134C29.3143 8.18366 28.7739 8.02039 28.2676 8.13604C27.5082 8.3061 26.8173 8.92515 26.8173 8.92515C26.0989 9.61223 25.9826 11.0068 25.9552 12.0136C25.9347 12.5782 25.9074 13.1224 25.9074 13.1224C26.0237 13.0068 26.7146 12.7823 26.7146 12.7823C27.3509 12.4354 27.1183 11.7483 27.0977 11.6871C26.9541 11.9252 26.6394 12.0476 26.5026 12.0952C26.4889 12.0952 26.4752 12.0816 26.4889 12.068C26.783 11.8095 26.7762 11.6122 26.7694 11.5578C26.7694 11.5578 26.7625 11.551 26.7557 11.5578C26.6325 11.7619 26.4752 11.8231 26.4341 11.8367C26.6394 11.3605 27.0704 10.1088 27.8092 8.93196C28.5549 7.74828 29.7795 9.10202 29.7795 9.10202C31.7361 11.449 29.588 13.551 29.588 13.551C29.3417 14.3877 28.9654 14.9184 28.7807 15.1428C28.7123 15.2245 28.6986 15.3401 28.7328 15.4422C29.1022 16.3537 30.2653 17.7415 30.2653 17.7415C30.3884 18.6463 29.6906 19.1088 29.6906 19.1088C29.9711 19.1769 30.4089 19.8912 30.5321 20.102C30.5389 20.1156 30.5663 20.1088 30.5663 20.0952C30.5458 19.6939 30.3268 19.2789 30.2311 19.1156C30.2037 19.0748 30.2174 19.0204 30.2516 18.9864C30.491 18.7687 30.6073 18.4014 30.6484 18.2449C30.6552 18.2041 30.7031 18.1905 30.7373 18.2041C36.2993 20.7959 36.1625 16.0612 36.1625 16.0612C36.2788 13.6054 35.3073 12.034 35.0473 11.653L35.0405 11.6599ZM31.0794 18.0748C30.8399 18.0612 30.6142 17.8843 30.4705 17.7415C30.3474 17.6258 30.2858 17.4558 30.2995 17.2857C30.32 17.102 30.4158 17.068 30.4979 17.068C30.5526 17.068 30.6005 17.1156 30.6005 17.1701C30.6347 17.6667 30.9494 17.9388 31.0862 18.034C31.1067 18.0476 31.0931 18.0748 31.0725 18.0748H31.0794ZM35.1978 12.8299C35.0268 12.9524 34.5137 13.1973 33.3575 12.9047C32.5024 12.6871 32.2013 11.8231 32.1056 11.3333C32.044 11.0272 31.9414 10.7279 31.8182 10.4422C31.5925 9.93196 31.2572 9.20406 31.0452 8.88434C31.0315 8.86393 31.0452 8.83672 31.0725 8.83672C31.2573 8.85032 31.8046 8.93196 31.8935 9.551C31.9893 10.2041 32.5981 10.653 32.7418 10.7483V10.7619C32.6323 10.7347 32.3176 10.6735 32.2629 10.7687C32.1945 10.8843 33.5286 12.4762 33.5286 12.4762C33.5286 12.4762 34.069 13.1496 35.191 12.7891C35.2115 12.7891 35.2252 12.8095 35.2047 12.8163L35.1978 12.8299Z" fill="#546670"/>
<path d="M29.5743 7.19051C29.6017 6.84357 29.6017 5.81636 28.8012 5.76194C28.767 5.76194 28.7602 5.71432 28.7876 5.70071C29.027 5.57826 29.4375 5.25854 28.8491 4.78234C28.7876 4.73473 28.7397 4.6667 28.7123 4.58507C28.6234 4.32656 28.4318 3.70751 28.5139 3.29935C28.5207 3.26534 28.5686 3.25173 28.596 3.27894C28.6781 3.38098 28.8286 3.63268 28.8423 4.11568C28.856 4.59867 28.9723 4.74833 29.0475 4.80956C29.1228 4.87078 29.1775 4.93881 29.2186 5.02724C29.2801 5.15649 29.3212 5.34017 29.2254 5.52384C29.198 5.57826 29.2254 5.64629 29.2801 5.6667C29.5196 5.76194 30.0258 6.04085 29.8753 6.63269C29.8548 6.71432 29.8343 6.80276 29.8138 6.89119C29.7932 6.99323 29.7522 7.13609 29.6701 7.23133C29.6359 7.27214 29.5675 7.24493 29.5743 7.19051Z" fill="#546670"/>
</g>
<defs>
<clipPath id="clip0_7_75">
<rect width="59" height="34" fill="white" transform="translate(0 -5)"/>
</clipPath>
</defs>
</svg>
