<?xml version="1.0" encoding="UTF-8"?>
<svg id="_Шар_2" data-name="Шар 2" xmlns="http://www.w3.org/2000/svg" viewBox="0 0 80.53 92.95">
  <defs>
    <style>
      .cls-1 {
        fill: #546670;
      }

      .cls-2 {
        fill: #ffbc28;
      }

      .cls-3 {
        fill: #fb572a;
      }

      .cls-4 {
        fill: #fe931c;
      }

      .cls-5 {
        fill: #f49423;
      }

      .cls-6 {
        fill: #fecb2e;
      }
    </style>
  </defs>
  <g id="_Шар_1-2" data-name="Шар 1">
    <g>
      <path class="cls-1" d="M20.81,92.95c-.18-.34,6.66-14.3,7.14-14.33,0,0-3.57-1.87,0-4.17,0,0-1.69-4.11-.97-10.7,0,0,2.93.77,4.98,1.85s2.88,1.59,5.96,1.47c0,0-1.63,3.72-4.78,5.17,0,0,.59.14,1.98-.45,0,0-1.3,2.19-4.7,3.07,0,0,3.49,1.51,7.5-1.95,0,0-1.21,2.66-5.35,4.07,0,0,3.34.47,5.56-.89,0,0-5.2,3.75-1.12,5.46l-7.42,6.49-8.78,4.93Z"/>
      <path class="cls-1" d="M52.15,74.2s-6.6-2.3-7.03-8.61c0,0-2.12,5.27,7.03,8.61Z"/>
      <path class="cls-1" d="M15.96,70.1c1.17.47,1.49-.64,1.49-.64,0,0-1.65,1.44-2.34-1.59-.11-.47-.22-.94-.36-1.4l-3.39-11.23s-.2-.85-.89-1.11l4.33,14.67c.17.59.59,1.08,1.16,1.31Z"/>
      <path class="cls-1" d="M8.13,51.44s-1.13-.68-1.61-1.16c-.28-.28-.76.02-.61.39.15.4.77.79,2.22,1.97.36.29.8.47,1.26.5.8.06,2.17.27,3.22,1.04.26.19.57.3.89.27.2-.02.42-.06.61-.16,0,0-1.68-.48-2.57-1.03-.27-.17-.56-.28-.87-.34-.47-.1-1.15-.22-1.65-.24-.25-.01-.48-.09-.69-.24-.62-.44-1.73-1.32-.2-1.01Z"/>
      <path class="cls-1" d="M7.01,50.15c-.3-.07-.98-.31-1.81-1.22-.16-.18-.19-.44-.07-.66.19-.34.6-.59,1.38.8.05.09.09.19.11.29.04.17.15.49.42.71.03.03,0,.08-.03.07Z"/>
      <path class="cls-1" d="M7.36,48.6s-1.04-.62-1.49-1.85c-.29-.8-.78-.46-1.08-.12-.27.3-.17.78.2.94.08.03.17.07.28.1.17.05.35.11.51.19.34.17.88.48,1.04.75.24.4.54,0,.54,0Z"/>
      <path class="cls-1" d="M6.27,46.16l-.56-.82c-.04-.06,0-.14.08-.13.37.05,1.29.24,2.54.95.11.06.22.1.35.1l2.52.14c.15,0,.31-.02.45-.09.4-.19,1.39-.45,2.3.82.1.15.25.26.41.33.64.26,2.24.96,2.5,1.61.32.81-1.19,2.32-1.43,7.92,0,0,1.27-4.83,7.73-4.27.07,0,.12.07.11.14-.13.88-.6,5.83,6.91.96.02-.01.05,0,.05.03-.1.51-.62,3.58,1.06,4.46,0,0,.38-4.18.99-4.54.34-.2-1.51-1.09-2.32-.93-.14.03-.27-.03-.33-.16-.2-.41-.8-1.16-2.49-1.33-.31-.03-.61-.11-.9-.21l-8.54-3.18c-.25-.09-.49-.24-.68-.42-.79-.74-2.93-2.73-3.76-3.15-.44-.23-1.72-1.8-1.94-2.08,0,0-.02,0-.01,0,.2.51,1.7,4.76-4.26,1.62-.41-.22-.89-.3-1.35-.2s-.97.4-1.14,1.14c-.06.28.08.56.34.67l1.4.58Z"/>
      <path class="cls-1" d="M35.87,51.99c.24-.21.58-.24.85-.07.74.46,2.36,2.26,2.47,2.55.5,1.31-4.35-.17-4.35-.17,0,0-1.24,2.27-1.57,2.15,0,0-1.12.85-.7-2.75,0,0,.73-1.18,2.24-.79l1.06-.93Z"/>
      <path class="cls-1" d="M7.36,40.68s-.11,0-.09.05c.22.74.93,3.1.93,3.24,0,.16.11-2.1-.84-3.29Z"/>
      <path class="cls-1" d="M8.92,41.94s-.11,1.25.32,1.81c0,0,.08-1.48-.32-1.81Z"/>
      <path class="cls-1" d="M9.17,40.86c.17.16.56.61.64,1.66.02.32.08.64.18.95.06.18.14.36.22.47.02.02.01.06-.02.06-.11.03-.39,0-.63-.82-.09-.29-.14-.59-.16-.9-.03-.36-.1-1.01-.26-1.4-.01-.03.02-.05.04-.03Z"/>
      <path class="cls-1" d="M6.48,39.31c-.32-.09-.93-.53-1.14-2.54-.01-.1-.04-.19-.1-.27-.08-.12-.21-.28-.37-.36-.21-.11-.32-1.52-.35-2.02,0-.09.1-.15.17-.09.2.16.5.6.56,1.87,0,0,2,.38,4.6-.47,0,0-.39-1.56-.26-2.25,0,0,.16-.19.58-.18.09,0,.17.07.19.16.07.35.25,1.28.28,1.99,0,.15-.04.29-.14.4l-.03.04c-.08.09-.1.22-.06.33.11.3.31.98.39,1.85.04.41-.16.8-.5,1.02-.22.14-.52.28-.95.39-.15.04-.3-.05-.35-.19h0s.55.16.67-.45c.07-.38-.1-1.09-.39-2.17-.02-.06-.08-.1-.14-.09-.42.08-1.96.37-2.94.21-.12-.02-.22.09-.19.21l.63,2.45c.02.1-.06.19-.16.16Z"/>
      <g>
        <path class="cls-3" d="M14.22,22.82s1.14-1.05,4.27-4.07c2.34-2.26-.93-7.74-.93-7.74,0,0-1.11-2.34.97-6.24.12-.22.21-.46.27-.71.16-.67.44-1.99.3-2.71,0,0-2.1,3.21-2.78,3.81-.61.54-1.79,2.73-2.05,3.86-.03.12-.19.14-.24.03-.57-1.08-2.15-4.61-1.38-9.05,0,0-4.35,2.62-2.7,8.06,0,0,.62,3.74-.55,4.94-.04.04-.12.02-.13-.04-.14-.67-.81-3.71-1.77-5.11,0,0-1.37,1.45-.48,4.27.74,2.34-.19,4.6-.53,5.3-.03.06-.12.04-.12-.02-.03-.69-.26-2.65-1.77-3.86,0,0-.08,4.63-1.85,6.38s1.09,5.87,1.09,5.87l10.4-2.98Z"/>
        <path class="cls-4" d="M12.41,9.23s4.15,2.86,2.42,9.68-5.08,10.49-5.08,10.49l-7.66,1.98S0,29.53,0,25.58c0-2.04.68-4.02,1.85-5.69.65-.92,1.44-2.18,1.97-3.49,0,0,1.13,3.36.34,6.87-.02.09.1.15.15.06.83-1.36,2.13-3.83,4.06-5.69,0,0,4.8-3.02,4.03-8.43Z"/>
        <path class="cls-2" d="M11.1,31.66c.72-.99,1.77-2.78,1.94-5,.1-1.36.53-2.67,1.24-3.84.27-.45.54-.86.74-1.13.68-.89-.38-4.65-.52-5.12-.02.04-.49,1.4-2.06,3.55-.86,1.18-1.56,2.46-2.07,3.82-.26.7-.5,1.44-.64,2.1"/>
        <path class="cls-6" d="M9.72,26.04c-.52-1.23-2.08-3.41-.77-6.35,0,0-3.06,2.09-4.54,6.4-.12.34-.62.26-.62-.1,0-.44.02-.82.05-1,0,0-1.75,2.85-1.92,5.69-.02.39.11.77.37,1.07.15.17.33.36.54.56.73.69,1.68,1.08,2.68,1.1s2.45-.05,3.91-.52c.63-.2.83-.28,1.6-1.11.13-.14,1.01-2.55-.1-4.15l-1.19-1.58Z"/>
        <path class="cls-5" d="M6.67,25.43s.11-.05.15,0c.39.43,2.07,2.35,2.2,3.96.14,1.66-.35,2.43-1.06,3.53-.14.22-.38.37-.65.41l-.56.07c-.12.02-.25-.02-.34-.1-.44-.38-1.69-1.52-1.87-2.56-.17-.94-.18-2.24,2.12-5.3Z"/>
      </g>
      <path class="cls-1" d="M75.45,44.15s4.04-11.69-10.31-18.42c-.99-.46-2.12-.56-3.17-.26-1.52.43-3.57,1.47-4.54,3.96,0,0,6.85-1.21,18.02,14.71Z"/>
      <path class="cls-1" d="M75.81,45.05s-.11,0-.08.05c.93,2.11,1.25,3.23,1.35,3.82.04.25-.28.39-.44.19-.73-.92-1.38-2.58-1.67-3.23-4.92-10.99-13.58-13.99-16.2-14.66-.49-.13-.92-.42-1.21-.84-2.69-3.78-6.47-4.46-8.99-4.42-1.43.02-2.81.44-4.03,1.19-5.14,3.16-10.95,6.03-12.43,6.75-.23.11-.51,0-.58-.25-.19-.62-.19-1.98,1.72-4.37,2.81-3.52,3.63-7.78,3.18-7.62-.33.12-1.22,1.09-1.65,1.58-.07.07-.19.01-.17-.08,1.23-6.18-3.19-10.7-4.36-11.77-.09-.08-.03-.23.09-.23,6.09.16,7.46-4.37,7.46-4.37.47-1.45,2.53-2.61,3.81-3.2.56-.26,1.18-.4,1.8-.4,1.16,0,2.38-.15,3.13-.27.5-.08,1.01.01,1.44.26,3.79,2.14,3.51,3.68,2.59,5.63-.03.07.05.12.1.07.56-.57.78-1.2.85-1.74.1-.81-.16-1.62-.68-2.24-.85-1.03-2.89-2.9-6.64-3.39-4.03-.53-10.69,2.49-13.57,3.92-.68.34-1.32.74-1.94,1.18-1.23.88-3.55,1.9-4.51,2.3-.18.07-.2.32-.04.42,11.43,7.21,9.11,16.48,8.76,17.65-.02.07-.1.09-.15.05-1.84-1.29-3.35-7.01-3.35-7.01-1.79-5.85-3.52-8.07-4.13-8.71-.02-.02-.06,0-.04.03,1.5,2.26,4.53,12.29,4.53,12.29.42,1.7,1.72,3.51,2.36,4.34.21.27.22.66.02.94-2.38,3.32-1.86,5.51-1.34,6.29.2.3.21.69,0,.99-3.97,5.85-4.12,18.49-4.12,18.49l10.24-1.98c-8.22-17.97,9.03-24.35,9.03-24.35,9.11-2.33,11.24,4.09,11.43,4.75,0,.02-.02.04-.03.03l-.47-.26c4.29,5.93,3.46,7.17,4.43,14.76.89,6.92,12.21,4.41,14.42,3.85.13-.03.23.11.16.23-1.43,2.38-.39,4.55-.39,4.55,1.65,5.52-.89,4.35-.89,4.35.16-3.12-.31-4.73-.82-5.55-.34-.56-1-.86-1.65-.74-2.43.42-5.28.1-6.38-.05-.28-.04-.54.16-.58.44-.3,1.98.83,4.24,1.29,5.06.16.28.3.57.42.86.93,2.32.99,3.61.83,4.32-.11.5-.6.82-1.1.75l-1.72-.21c-.32-.04-.52-.36-.43-.66.43-1.43.54-3.56.15-5.18-.28-1.17-.48-2.9-.59-4.02-.09-.89-.55-1.7-1.29-2.21-.83-.57-1.47-.56-1.88-.41-.34.12-.58.41-.65.75-.4,1.89-2.32,7.01-2.32,7.01-2.8,5.38,2.75,6.35,4.13,6.5.07,0,.08.11.01.13-3.44,1.11-6.17-.79-7.06-1.53-.19-.15-.24-.41-.15-.63,3.2-7.42,4.72-16.05,4.72-16.05.69-7.04-1.42-12.15-2.81-14.67-.75-1.36-1.88-2.48-3.25-3.2-1.74-.92-4.02-1.6-6.15-1.12-3.18.73-6.09,3.35-6.09,3.35-3,2.9-3.49,8.79-3.63,13.06-.07,2.38-.2,4.68-.2,4.68.48-.48,3.39-1.45,3.39-1.45,2.67-1.47,1.7-4.38,1.62-4.62,0,0-.01,0-.01,0-.59,1.02-1.92,1.53-2.49,1.72-.06.02-.11-.06-.06-.11,1.24-1.1,1.21-1.92,1.17-2.16,0-.03-.04-.03-.06,0-.52.87-1.18,1.12-1.34,1.18-.01,0-.03,0-.02-.02.85-2,2.66-7.29,5.79-12.26,3.14-5,8.26.73,8.26.73,8.22,9.92-.81,18.79-.81,18.79-1.04,3.52-2.62,5.79-3.38,6.74-.28.35-.36.83-.19,1.25,1.54,3.85,6.43,9.71,6.43,9.71.52,3.83-2.42,5.76-2.42,5.76,1.17.28,3.01,3.31,3.53,4.19.04.06.13.03.13-.04-.1-1.69-1.02-3.44-1.42-4.13-.1-.18-.06-.4.09-.53,1.02-.93,1.5-2.48,1.67-3.13.04-.16.22-.24.37-.17,23.37,10.94,22.81-9.05,22.81-9.05.49-10.36-3.58-17.01-4.69-18.61ZM59.15,72.14c-1.01-.05-1.96-.82-2.56-1.41-.51-.5-.78-1.2-.71-1.91.07-.78.5-.93.84-.93.24,0,.42.19.44.43.13,2.09,1.46,3.23,2.05,3.64.08.06.04.19-.06.18ZM76.46,50c-.71.51-2.87,1.55-7.74.32-3.6-.91-4.85-4.58-5.27-6.64-.27-1.29-.68-2.55-1.21-3.76-.95-2.16-2.35-5.22-3.25-6.57-.06-.09,0-.21.11-.2.78.05,3.09.41,3.45,3.02.39,2.76,2.96,4.65,3.58,5.07.03.02,0,.06-.02.05-.46-.1-1.79-.36-2.02.04-.28.48,5.32,7.22,5.32,7.22,0,0,2.27,2.84,6.99,1.33.08-.03.13.08.07.13Z"/>
      <path class="cls-1" d="M52.82,26.16c.1-1.48.12-5.8-3.25-6.04-.14,0-.17-.19-.05-.25.99-.53,2.74-1.86.27-3.89-.26-.22-.46-.5-.58-.82-.39-1.1-1.19-3.7-.82-5.42.03-.16.23-.21.34-.08.36.44.99,1.51,1.05,3.53s.55,2.67.85,2.93.55.55.71.91c.25.54.43,1.32.04,2.11-.11.23-.01.51.23.6,1.01.41,3.15,1.59,2.49,4.08-.09.36-.17.72-.25,1.08-.09.44-.26,1.04-.62,1.43-.15.16-.42.05-.4-.17Z"/>
    </g>
  </g>
</svg>