<?xml version="1.0" encoding="UTF-8"?>
<svg id="_Шар_2" data-name="Шар 2" xmlns="http://www.w3.org/2000/svg" viewBox="0 0 158.96 139.9">
  <defs>
    <style>
      .cls-1 {
        fill: #546670;
      }

      .cls-2 {
        fill: none;
        stroke: #546670;
        stroke-linecap: round;
        stroke-miterlimit: 10;
        stroke-width: 10px;
      }
    </style>
  </defs>
  <g id="_Шар_1-2" data-name="Шар 1">
    <g>
      <path class="cls-2" d="M84,100l29.66,32.56c2.85,3.13,7.78,3.13,10.64,0l29.66-32.56"/>
      <path class="cls-1" d="M124.98,124V39c0-4.42-2.69-8-6-8s-6,3.58-6,8v85c0,4.42,2.69,8,6,8,1.66,0,3.16-.9,4.24-2.34,1.08-1.45,1.76-3.45,1.76-5.66Z"/>
      <g>
        <path class="cls-2" d="M5,39.9L34.66,7.35c2.85-3.13,7.78-3.13,10.64,0l29.66,32.56"/>
        <path class="cls-1" d="M45.98,15.9v85c0,4.42-2.69,8-6,8s-6-3.58-6-8V15.9c0-4.42,2.69-8,6-8,1.66,0,3.16.9,4.24,2.34,1.08,1.45,1.76,3.45,1.76,5.66Z"/>
      </g>
    </g>
  </g>
</svg>