<?xml version="1.0" encoding="UTF-8"?>
<svg id="_Шар_2" data-name="Шар_2" xmlns="http://www.w3.org/2000/svg" viewBox="0 0 244.32 144.8">
  <defs>
    <style>
      .cls-1 {
        fill: #546670;
      }

      .cls-2 {
        fill: #ffbc28;
      }

      .cls-3 {
        fill: #fb572a;
      }

      .cls-4 {
        fill: #fe931c;
      }

      .cls-5 {
        font-family: AnimeAcev3, 'Anime Ace v3';
        font-size: 40px;
      }

      .cls-5, .cls-6 {
        fill: #f49423;
      }

      .cls-7 {
        fill: #fecb2e;
      }
    </style>
  </defs>
  <g id="_Шар_1-2" data-name="Шар_1">
    <g>
      <g>
        <path class="cls-1" d="M98.84,96.87c-.19-.35,6.94-14.9,7.44-14.94,0,0-3.72-1.95,0-4.35,0,0-1.76-4.29-1.01-11.15,0,0,3.05.8,5.19,1.93s3,1.66,6.21,1.53c0,0-1.7,3.88-4.98,5.39,0,0,.61.14,2.06-.47,0,0-1.35,2.28-4.9,3.2,0,0,3.64,1.58,7.81-2.03,0,0-1.26,2.77-5.58,4.24,0,0,3.48.49,5.8-.93,0,0-5.42,3.91-1.17,5.69l-7.74,6.76-9.15,5.14Z"/>
        <path class="cls-1" d="M131.5,77.33s-6.88-2.4-7.33-8.97c0,0-2.2,5.5,7.33,8.97Z"/>
        <path class="cls-1" d="M93.78,73.05c1.22.49,1.56-.67,1.56-.67,0,0-1.72,1.5-2.44-1.66-.11-.49-.23-.98-.38-1.46l-3.54-11.7s-.21-.88-.92-1.16l4.51,15.29c.18.61.62,1.12,1.21,1.36Z"/>
        <path class="cls-1" d="M85.63,53.61s-1.17-.7-1.68-1.21c-.29-.29-.79.03-.64.41.16.41.81.82,2.32,2.05.37.3.83.49,1.31.53.84.06,2.26.28,3.35,1.09.27.2.59.31.92.28.21-.02.44-.06.64-.17,0,0-1.75-.5-2.67-1.08-.28-.17-.58-.29-.9-.35-.49-.1-1.2-.23-1.72-.25-.26-.01-.5-.1-.71-.25-.65-.46-1.8-1.37-.2-1.06Z"/>
        <path class="cls-1" d="M84.46,52.27c-.32-.07-1.02-.33-1.88-1.27-.17-.19-.2-.46-.08-.68.2-.36.63-.61,1.44.83.05.1.09.2.12.3.04.18.15.51.44.74.04.03,0,.08-.03.07Z"/>
        <path class="cls-1" d="M84.83,50.65s-1.08-.65-1.55-1.93c-.3-.83-.81-.48-1.13-.12-.28.31-.18.81.2.98.08.04.18.07.29.1.18.05.36.11.53.2.35.18.92.5,1.09.78.25.42.57,0,.57,0Z"/>
        <path class="cls-1" d="M83.69,48.11l-.59-.85c-.04-.06,0-.15.08-.14.39.05,1.35.25,2.65.99.11.06.23.1.36.11l2.62.15c.16,0,.32-.02.47-.09.42-.19,1.45-.47,2.4.86.11.15.26.27.43.34.67.27,2.34,1,2.6,1.68.34.84-1.24,2.42-1.49,8.26,0,0,1.33-5.03,8.05-4.45.07,0,.13.07.12.15-.14.92-.62,6.08,7.21,1,.02-.02.05,0,.05.03-.1.53-.64,3.73,1.11,4.65,0,0,.4-4.36,1.03-4.73.36-.21-1.58-1.14-2.42-.97-.14.03-.28-.03-.35-.16-.21-.42-.84-1.21-2.6-1.38-.32-.03-.63-.11-.93-.22l-8.9-3.31c-.26-.1-.51-.25-.71-.44-.82-.77-3.06-2.84-3.91-3.28-.46-.24-1.79-1.87-2.02-2.16,0,0-.02,0-.01,0,.21.53,1.77,4.96-4.44,1.68-.43-.23-.93-.31-1.41-.21s-1.01.42-1.19,1.18c-.07.29.08.58.35.7l1.45.6Z"/>
        <path class="cls-1" d="M114.53,54.18c.25-.22.61-.25.89-.07.77.48,2.46,2.35,2.58,2.66.52,1.37-4.54-.17-4.54-.17,0,0-1.29,2.36-1.64,2.24,0,0-1.17.88-.72-2.87,0,0,.76-1.23,2.33-.82l1.11-.97Z"/>
        <path class="cls-1" d="M84.82,42.39s-.11,0-.09.05c.23.77.97,3.23.97,3.38,0,.16.11-2.19-.88-3.43Z"/>
        <path class="cls-1" d="M86.45,43.71s-.11,1.31.33,1.89c0,0,.08-1.54-.33-1.89Z"/>
        <path class="cls-1" d="M86.71,42.58c.18.16.58.64.66,1.73.03.34.08.67.19.99.06.19.14.38.23.49.02.02.01.06-.02.06-.12.03-.41,0-.66-.85-.09-.3-.14-.62-.17-.94-.03-.38-.11-1.05-.28-1.45-.01-.03.02-.05.04-.03Z"/>
        <path class="cls-1" d="M83.91,40.97c-.34-.09-.97-.55-1.19-2.65-.01-.1-.05-.2-.1-.28-.08-.12-.22-.29-.38-.38-.22-.12-.33-1.58-.37-2.1,0-.1.1-.15.18-.09.21.16.52.63.58,1.94,0,0,2.08.39,4.79-.49,0,0-.41-1.62-.27-2.35,0,0,.16-.2.61-.19.1,0,.18.07.2.17.07.37.26,1.33.29,2.08,0,.15-.04.3-.14.42l-.04.04c-.08.09-.1.22-.06.34.11.32.33,1.02.41,1.93.04.42-.17.83-.53,1.06-.23.14-.54.29-.99.41-.15.04-.31-.05-.36-.2h0s.57.17.7-.47c.08-.39-.1-1.14-.41-2.26-.02-.06-.08-.1-.14-.09-.44.09-2.05.38-3.06.22-.12-.02-.23.1-.2.22l.65,2.55c.03.1-.07.2-.17.17Z"/>
        <g>
          <path class="cls-3" d="M91.97,23.78s1.19-1.09,4.45-4.24c2.44-2.35-.97-8.07-.97-8.07,0,0-1.16-2.44,1.01-6.5.12-.23.22-.48.28-.74.17-.7.46-2.08.31-2.83,0,0-2.18,3.34-2.9,3.97-.63.56-1.86,2.84-2.13,4.02-.03.12-.19.14-.25.03-.59-1.13-2.24-4.8-1.44-9.43,0,0-4.54,2.73-2.81,8.4,0,0,.65,3.89-.58,5.15-.05.05-.12.02-.14-.04-.15-.7-.84-3.87-1.85-5.32,0,0-1.43,1.51-.5,4.45.77,2.44-.2,4.79-.55,5.52-.03.06-.12.04-.12-.03-.03-.72-.27-2.76-1.84-4.03,0,0-.08,4.82-1.93,6.65s1.13,6.12,1.13,6.12l10.84-3.11Z"/>
          <path class="cls-4" d="M90.09,9.62s4.33,2.98,2.52,10.08-5.29,10.93-5.29,10.93l-7.98,2.06s-2.19-1.93-2.18-6.04c0-2.13.7-4.19,1.93-5.93.68-.96,1.5-2.27,2.06-3.64,0,0,1.18,3.5.35,7.16-.02.1.11.15.16.07.86-1.41,2.22-4,4.23-5.93,0,0,5-3.15,4.2-8.78Z"/>
          <path class="cls-2" d="M88.72,32.99c.75-1.03,1.84-2.9,2.02-5.21.11-1.42.56-2.79,1.29-4,.28-.47.56-.9.77-1.18.71-.92-.4-4.84-.55-5.33-.02.05-.51,1.46-2.15,3.7-.89,1.23-1.62,2.56-2.15,3.99-.27.73-.52,1.5-.67,2.18"/>
          <path class="cls-7" d="M87.29,27.14c-.55-1.28-2.17-3.56-.8-6.62,0,0-3.19,2.18-4.73,6.67-.12.36-.65.27-.65-.11,0-.46.02-.85.06-1.04,0,0-1.83,2.97-2.01,5.93-.02.41.11.81.38,1.11.15.17.34.38.56.58.76.71,1.75,1.12,2.79,1.14s2.55-.05,4.08-.54c.66-.21.87-.29,1.66-1.16.13-.14,1.05-2.66-.1-4.32l-1.24-1.65Z"/>
          <path class="cls-6" d="M84.1,26.5c.04-.05.12-.06.16,0,.41.45,2.16,2.45,2.29,4.13s-.36,2.54-1.1,3.68c-.15.23-.4.39-.67.42l-.58.08c-.13.02-.26-.02-.36-.11-.46-.39-1.76-1.58-1.95-2.67-.18-.98-.19-2.34,2.21-5.53Z"/>
        </g>
        <path class="cls-1" d="M155.79,46.01s4.21-12.18-10.75-19.19c-1.03-.48-2.21-.59-3.3-.27-1.58.45-3.72,1.54-4.73,4.13,0,0,7.14-1.26,18.78,15.34Z"/>
        <path class="cls-1" d="M156.16,46.95s-.11,0-.09.05c.97,2.2,1.31,3.37,1.41,3.98.04.26-.29.41-.46.2-.76-.96-1.43-2.68-1.74-3.36-5.13-11.46-14.15-14.58-16.88-15.28-.51-.13-.96-.44-1.27-.87-2.8-3.94-6.74-4.65-9.37-4.61-1.49.02-2.93.46-4.2,1.24-5.36,3.3-11.41,6.28-12.95,7.03-.24.12-.53,0-.61-.26-.2-.65-.2-2.07,1.79-4.56,2.93-3.66,3.78-8.11,3.32-7.94-.34.13-1.27,1.13-1.72,1.64-.07.08-.19.01-.17-.09,1.28-6.44-3.32-11.15-4.54-12.27-.09-.09-.03-.24.1-.24,6.35.17,7.77-4.55,7.77-4.55.49-1.51,2.64-2.72,3.97-3.33.59-.27,1.23-.42,1.88-.42,1.21,0,2.48-.16,3.26-.28.52-.08,1.05.01,1.5.27,3.95,2.23,3.66,3.83,2.7,5.87-.03.07.06.13.11.07.58-.6.82-1.25.89-1.82.1-.84-.17-1.69-.71-2.34-.89-1.07-3.01-3.02-6.92-3.53-4.2-.55-11.14,2.6-14.14,4.08-.71.35-1.38.77-2.02,1.23-1.28.91-3.7,1.98-4.7,2.4-.18.08-.21.33-.04.44,11.92,7.51,9.49,17.17,9.13,18.4-.02.07-.1.09-.16.05-1.92-1.35-3.5-7.3-3.5-7.3-1.86-6.1-3.67-8.41-4.3-9.08-.02-.02-.06,0-.04.03,1.56,2.35,4.72,12.81,4.72,12.81.43,1.77,1.79,3.66,2.46,4.52.22.28.23.68.02.98-2.48,3.46-1.93,5.74-1.39,6.56.21.31.22.72,0,1.03-4.14,6.09-4.3,19.27-4.3,19.27l10.67-2.06c-8.57-18.73,9.41-25.38,9.41-25.38,9.49-2.43,11.72,4.27,11.92,4.95,0,.02-.02.04-.04.03l-.49-.27c4.47,6.18,3.61,7.47,4.62,15.38.93,7.21,12.72,4.59,15.03,4.01.14-.03.24.11.17.24-1.49,2.48-.41,4.75-.41,4.75,1.72,5.76-.92,4.54-.92,4.54.17-3.25-.32-4.93-.85-5.79-.36-.58-1.04-.89-1.72-.77-2.54.44-5.5.11-6.65-.05-.3-.04-.56.16-.61.46-.32,2.06.86,4.41,1.35,5.27.16.29.31.59.43.9.97,2.42,1.04,3.77.87,4.5-.12.52-.62.85-1.15.79l-1.8-.22c-.33-.04-.55-.37-.45-.69.45-1.49.56-3.72.16-5.4-.29-1.22-.5-3.02-.61-4.19-.09-.93-.58-1.77-1.35-2.3-.87-.59-1.53-.58-1.96-.43-.35.12-.6.42-.68.79-.42,1.97-2.41,7.31-2.41,7.31-2.92,5.61,2.86,6.62,4.31,6.78.07,0,.08.11.01.13-3.58,1.16-6.43-.82-7.36-1.59-.19-.16-.25-.43-.16-.66,3.33-7.74,4.92-16.72,4.92-16.72.72-7.33-1.47-12.66-2.93-15.29-.78-1.42-1.95-2.58-3.39-3.33-1.82-.96-4.19-1.67-6.41-1.17-3.32.76-6.34,3.49-6.34,3.49-3.13,3.02-3.64,9.16-3.78,13.61-.08,2.48-.21,4.87-.21,4.87.5-.5,3.53-1.51,3.53-1.51,2.78-1.53,1.77-4.56,1.69-4.82,0,0-.01,0-.01,0-.62,1.06-2,1.6-2.6,1.79-.07.02-.11-.06-.06-.11,1.29-1.14,1.26-2,1.22-2.25,0-.03-.04-.03-.06,0-.55.9-1.23,1.17-1.39,1.22-.01,0-.03,0-.02-.02.89-2.09,2.78-7.6,6.04-12.78,3.28-5.21,8.61.76,8.61.76,8.57,10.34-.84,19.58-.84,19.58-1.08,3.67-2.73,6.03-3.53,7.02-.3.37-.37.87-.2,1.31,1.6,4.02,6.7,10.12,6.7,10.12.55,3.99-2.52,6.01-2.52,6.01,1.22.29,3.14,3.45,3.68,4.37.04.07.14.03.14-.04-.1-1.77-1.06-3.59-1.48-4.3-.11-.18-.06-.41.09-.56,1.06-.97,1.56-2.58,1.74-3.26.04-.17.23-.25.38-.18,24.35,11.4,23.77-9.43,23.77-9.43.51-10.8-3.73-17.73-4.88-19.4ZM138.8,75.18c-1.05-.06-2.05-.85-2.67-1.46-.53-.52-.81-1.25-.74-1.99.08-.81.52-.97.88-.97.25,0,.44.2.46.45.14,2.18,1.53,3.37,2.14,3.79.09.06.04.19-.06.19ZM156.84,52.1c-.74.53-2.99,1.62-8.06.33-3.75-.95-5.05-4.77-5.5-6.92-.28-1.35-.71-2.66-1.26-3.92-.99-2.25-2.45-5.44-3.39-6.85-.06-.09,0-.21.12-.21.81.05,3.22.43,3.6,3.14.41,2.88,3.08,4.85,3.73,5.29.03.02,0,.06-.02.05-.48-.11-1.86-.38-2.11.04-.29.5,5.55,7.52,5.55,7.52,0,0,2.36,2.96,7.28,1.38.08-.03.14.08.07.13Z"/>
        <path class="cls-1" d="M132.21,27.26c.11-1.54.12-6.05-3.38-6.29-.14,0-.18-.2-.06-.26,1.04-.55,2.86-1.94.28-4.05-.27-.22-.48-.52-.6-.85-.4-1.15-1.24-3.86-.86-5.65.03-.16.24-.21.35-.08.37.46,1.03,1.57,1.09,3.68s.57,2.78.89,3.05.58.57.74.94c.26.57.44,1.37.04,2.19-.12.24-.01.53.24.63,1.05.43,3.28,1.65,2.59,4.25-.1.37-.18.75-.26,1.13-.09.46-.28,1.09-.64,1.49-.15.17-.44.05-.42-.18Z"/>
      </g>
      <text class="cls-5" transform="translate(0 131.54)"><tspan x="0" y="0">SoulQuest</tspan></text>
    </g>
  </g>
</svg>