<?xml version="1.0" encoding="UTF-8"?>
<svg id="_Шар_2" data-name="Шар 2" xmlns="http://www.w3.org/2000/svg" viewBox="0 0 95.58 36.46">
  <defs>
    <style>
      .cls-1 {
        fill: #546670;
      }

      .cls-2 {
        fill: #ffbc28;
      }

      .cls-3 {
        fill: #fb572a;
      }

      .cls-4, .cls-5 {
        fill: #fe931c;
      }

      .cls-5 {
        font-family: ADomIno, a_DomIno;
        font-size: 20px;
      }

      .cls-6 {
        fill: #f49423;
      }

      .cls-7 {
        fill: #fecb2e;
      }
    </style>
  </defs>
  <g id="_Шар_1-2" data-name="Шар 1">
    <g>
      <g>
        <path class="cls-1" d="M35.53,32.34c-.06-.12,2.32-4.97,2.48-4.99,0,0-1.24-.65,0-1.45,0,0-.59-1.43-.34-3.72,0,0,1.02.27,1.73.64s1,.55,2.07.51c0,0-.57,1.29-1.66,1.8,0,0,.21.05.69-.16,0,0-.45.76-1.64,1.07,0,0,1.21.53,2.61-.68,0,0-.42.93-1.86,1.41,0,0,1.16.16,1.94-.31,0,0-1.81,1.3-.39,1.9l-2.58,2.26-3.06,1.71Z"/>
        <path class="cls-1" d="M46.43,25.81s-2.3-.8-2.45-2.99c0,0-.74,1.83,2.45,2.99Z"/>
        <path class="cls-1" d="M33.84,24.39c.41.16.52-.22.52-.22,0,0-.57.5-.81-.55-.04-.16-.08-.33-.13-.49l-1.18-3.91s-.07-.29-.31-.39l1.51,5.1c.06.2.21.38.4.45Z"/>
        <path class="cls-1" d="M31.12,17.9s-.39-.24-.56-.4c-.1-.1-.26,0-.21.14.05.14.27.27.77.69.12.1.28.16.44.18.28.02.75.09,1.12.36.09.07.2.1.31.09.07,0,.15-.02.21-.06,0,0-.58-.17-.89-.36-.09-.06-.19-.1-.3-.12-.16-.03-.4-.08-.57-.08-.09,0-.17-.03-.24-.08-.22-.15-.6-.46-.07-.35Z"/>
        <path class="cls-1" d="M30.73,17.45c-.11-.02-.34-.11-.63-.42-.06-.06-.07-.15-.03-.23.07-.12.21-.21.48.28.02.03.03.07.04.1.01.06.05.17.15.25.01,0,0,.03-.01.02Z"/>
        <path class="cls-1" d="M30.85,16.91s-.36-.22-.52-.65c-.1-.28-.27-.16-.38-.04-.09.1-.06.27.07.33.03.01.06.02.1.03.06.02.12.04.18.07.12.06.31.17.36.26.08.14.19,0,.19,0Z"/>
        <path class="cls-1" d="M30.47,16.06l-.2-.28s0-.05.03-.05c.13.02.45.08.88.33.04.02.08.03.12.04l.88.05c.05,0,.11,0,.16-.03.14-.06.49-.16.8.29.04.05.09.09.14.12.22.09.78.34.87.56.11.28-.41.81-.5,2.76,0,0,.44-1.68,2.69-1.48.02,0,.04.02.04.05-.05.31-.21,2.03,2.41.33,0,0,.02,0,.02.01-.03.18-.22,1.24.37,1.55,0,0,.13-1.46.34-1.58.12-.07-.53-.38-.81-.32-.05,0-.09-.01-.12-.05-.07-.14-.28-.4-.87-.46-.11-.01-.21-.04-.31-.07l-2.97-1.11c-.09-.03-.17-.08-.24-.15-.27-.26-1.02-.95-1.31-1.09-.15-.08-.6-.63-.68-.72,0,0,0,0,0,0,.07.18.59,1.65-1.48.56-.14-.08-.31-.11-.47-.07s-.34.14-.4.4c-.02.1.03.19.12.23l.49.2Z"/>
        <path class="cls-1" d="M40.77,18.09c.08-.07.2-.08.3-.02.26.16.82.79.86.89.17.46-1.51-.06-1.51-.06,0,0-.43.79-.55.75,0,0-.39.29-.24-.96,0,0,.25-.41.78-.27l.37-.32Z"/>
        <path class="cls-1" d="M30.85,14.15s-.04,0-.03.02c.08.26.32,1.08.32,1.13,0,.06.04-.73-.29-1.14Z"/>
        <path class="cls-1" d="M31.39,14.59s-.04.44.11.63c0,0,.03-.52-.11-.63Z"/>
        <path class="cls-1" d="M31.48,14.21c.06.05.19.21.22.58,0,.11.03.22.06.33.02.06.05.13.08.16,0,0,0,.02,0,.02-.04.01-.14,0-.22-.28-.03-.1-.05-.21-.06-.31-.01-.13-.04-.35-.09-.49,0,0,0-.02.01-.01Z"/>
        <path class="cls-1" d="M30.54,13.68c-.11-.03-.32-.18-.4-.88,0-.03-.02-.07-.03-.09-.03-.04-.07-.1-.13-.13-.07-.04-.11-.53-.12-.7,0-.03.03-.05.06-.03.07.05.17.21.19.65,0,0,.69.13,1.6-.16,0,0-.14-.54-.09-.78,0,0,.05-.07.2-.06.03,0,.06.02.07.06.02.12.09.44.1.69,0,.05-.01.1-.05.14h-.01s-.03.09-.02.13c.04.11.11.34.14.64.01.14-.06.28-.18.36-.08.05-.18.1-.33.14-.05.01-.1-.02-.12-.07h0s.19.06.23-.16c.03-.13-.03-.38-.14-.76,0-.02-.03-.03-.05-.03-.15.03-.68.13-1.02.07-.04,0-.08.03-.07.07l.22.85s-.02.07-.06.06Z"/>
        <g>
          <path class="cls-3" d="M33.24,7.94s.4-.36,1.49-1.42c.81-.79-.32-2.69-.32-2.69,0,0-.39-.81.34-2.17.04-.08.07-.16.09-.25.06-.23.15-.69.1-.94,0,0-.73,1.12-.97,1.33-.21.19-.62.95-.71,1.34,0,.04-.06.05-.08.01-.2-.38-.75-1.6-.48-3.15,0,0-1.51.91-.94,2.81,0,0,.22,1.3-.19,1.72-.02.02-.04,0-.05-.01-.05-.23-.28-1.29-.62-1.78,0,0-.48.5-.17,1.49.26.81-.07,1.6-.18,1.84,0,.02-.04.01-.04,0-.01-.24-.09-.92-.62-1.34,0,0-.03,1.61-.65,2.22s.38,2.04.38,2.04l3.62-1.04Z"/>
          <path class="cls-4" d="M32.61,3.21s1.44,1,.84,3.37-1.77,3.65-1.77,3.65l-2.66.69s-.73-.64-.73-2.02c0-.71.24-1.4.64-1.98.23-.32.5-.76.69-1.21,0,0,.39,1.17.12,2.39,0,.03.04.05.05.02.29-.47.74-1.33,1.41-1.98,0,0,1.67-1.05,1.4-2.93Z"/>
          <path class="cls-2" d="M32.15,11.01c.25-.34.61-.97.67-1.74.04-.47.19-.93.43-1.34.09-.16.19-.3.26-.39.24-.31-.13-1.62-.18-1.78,0,.02-.17.49-.72,1.24-.3.41-.54.86-.72,1.33-.09.24-.18.5-.22.73"/>
          <path class="cls-7" d="M31.67,9.06c-.18-.43-.72-1.19-.27-2.21,0,0-1.06.73-1.58,2.23-.04.12-.22.09-.22-.04,0-.15,0-.29.02-.35,0,0-.61.99-.67,1.98,0,.14.04.27.13.37.05.06.11.13.19.2.25.24.58.37.93.38s.85-.02,1.36-.18c.22-.07.29-.1.56-.39.04-.05.35-.89-.03-1.44l-.42-.55Z"/>
          <path class="cls-6" d="M30.61,8.85s.04-.02.05,0c.14.15.72.82.77,1.38s-.12.85-.37,1.23c-.05.08-.13.13-.22.14l-.19.03s-.09,0-.12-.04c-.15-.13-.59-.53-.65-.89-.06-.33-.06-.78.74-1.84Z"/>
        </g>
        <path class="cls-1" d="M54.54,15.36s1.4-4.07-3.59-6.41c-.35-.16-.74-.2-1.1-.09-.53.15-1.24.51-1.58,1.38,0,0,2.38-.42,6.27,5.12Z"/>
        <path class="cls-1" d="M54.66,15.67s-.04,0-.03.02c.32.73.44,1.12.47,1.33.01.09-.1.14-.15.07-.25-.32-.48-.9-.58-1.12-1.71-3.82-4.72-4.87-5.64-5.1-.17-.04-.32-.15-.42-.29-.94-1.32-2.25-1.55-3.13-1.54-.5,0-.98.15-1.4.41-1.79,1.1-3.81,2.1-4.32,2.35-.08.04-.18,0-.2-.09-.07-.22-.07-.69.6-1.52.98-1.22,1.26-2.71,1.11-2.65-.11.04-.42.38-.57.55-.02.03-.06,0-.06-.03.43-2.15-1.11-3.72-1.52-4.09-.03-.03,0-.08.03-.08,2.12.06,2.59-1.52,2.59-1.52.16-.51.88-.91,1.32-1.11.2-.09.41-.14.63-.14.4,0,.83-.05,1.09-.09.17-.03.35,0,.5.09,1.32.75,1.22,1.28.9,1.96-.01.02.02.04.04.02.19-.2.27-.42.3-.61.03-.28-.06-.56-.24-.78-.3-.36-1.01-1.01-2.31-1.18-1.4-.18-3.72.87-4.72,1.36-.24.12-.46.26-.67.41-.43.31-1.23.66-1.57.8-.06.03-.07.11-.01.15,3.98,2.51,3.17,5.73,3.05,6.14,0,.02-.03.03-.05.02-.64-.45-1.17-2.44-1.17-2.44-.62-2.04-1.22-2.81-1.44-3.03,0,0-.02,0-.01.01.52.79,1.58,4.28,1.58,4.28.15.59.6,1.22.82,1.51.07.1.08.23,0,.33-.83,1.16-.65,1.92-.46,2.19.07.1.07.24,0,.34-1.38,2.03-1.43,6.43-1.43,6.43l3.56-.69c-2.86-6.25,3.14-8.47,3.14-8.47,3.17-.81,3.91,1.42,3.98,1.65,0,0,0,.01-.01,0l-.17-.09c1.49,2.06,1.2,2.49,1.54,5.13.31,2.41,4.25,1.53,5.02,1.34.05-.01.08.04.06.08-.5.83-.14,1.58-.14,1.58.58,1.92-.31,1.51-.31,1.51.06-1.09-.11-1.65-.28-1.93-.12-.19-.35-.3-.57-.26-.85.15-1.84.04-2.22-.02-.1-.01-.19.05-.2.15-.11.69.29,1.47.45,1.76.05.1.1.2.14.3.32.81.35,1.26.29,1.5-.04.17-.21.28-.38.26l-.6-.07c-.11-.01-.18-.12-.15-.23.15-.5.19-1.24.05-1.8-.1-.41-.17-1.01-.2-1.4-.03-.31-.19-.59-.45-.77-.29-.2-.51-.19-.66-.14-.12.04-.2.14-.23.26-.14.66-.81,2.44-.81,2.44-.97,1.87.96,2.21,1.44,2.26.02,0,.03.04,0,.04-1.2.39-2.15-.27-2.46-.53-.06-.05-.09-.14-.05-.22,1.11-2.58,1.64-5.58,1.64-5.58.24-2.45-.49-4.23-.98-5.1-.26-.47-.65-.86-1.13-1.11-.61-.32-1.4-.56-2.14-.39-1.11.25-2.12,1.16-2.12,1.16-1.05,1.01-1.22,3.06-1.26,4.54-.03.83-.07,1.63-.07,1.63.17-.17,1.18-.5,1.18-.5.93-.51.59-1.52.56-1.61,0,0,0,0,0,0-.21.35-.67.53-.87.6-.02,0-.04-.02-.02-.04.43-.38.42-.67.41-.75,0,0-.01-.01-.02,0-.18.3-.41.39-.47.41,0,0,0,0,0,0,.3-.7.93-2.54,2.01-4.27,1.09-1.74,2.88.25,2.88.25,2.86,3.45-.28,6.54-.28,6.54-.36,1.23-.91,2.01-1.18,2.34-.1.12-.12.29-.07.44.54,1.34,2.24,3.38,2.24,3.38.18,1.33-.84,2.01-.84,2.01.41.1,1.05,1.15,1.23,1.46.01.02.05.01.05-.01-.03-.59-.35-1.2-.49-1.44-.04-.06-.02-.14.03-.19.35-.32.52-.86.58-1.09.01-.06.08-.08.13-.06,8.13,3.81,7.93-3.15,7.93-3.15.17-3.61-1.25-5.92-1.63-6.48ZM48.87,25.1c-.35-.02-.68-.28-.89-.49-.18-.17-.27-.42-.25-.67.03-.27.17-.32.29-.32.08,0,.15.07.15.15.05.73.51,1.13.71,1.27.03.02.01.06-.02.06ZM54.89,17.39c-.25.18-1,.54-2.69.11-1.25-.32-1.69-1.59-1.83-2.31-.09-.45-.24-.89-.42-1.31-.33-.75-.82-1.82-1.13-2.29-.02-.03,0-.07.04-.07.27.02,1.07.14,1.2,1.05.14.96,1.03,1.62,1.24,1.76,0,0,0,.02,0,.02-.16-.04-.62-.13-.7.01-.1.17,1.85,2.51,1.85,2.51,0,0,.79.99,2.43.46.03,0,.05.03.02.04Z"/>
        <path class="cls-1" d="M46.67,9.1c.04-.51.04-2.02-1.13-2.1-.05,0-.06-.07-.02-.09.35-.18.95-.65.09-1.35-.09-.07-.16-.17-.2-.29-.13-.38-.41-1.29-.29-1.89.01-.05.08-.07.12-.03.12.15.34.52.36,1.23s.19.93.3,1.02.19.19.25.32c.09.19.15.46.01.73-.04.08,0,.18.08.21.35.14,1.09.55.87,1.42-.03.12-.06.25-.09.38-.03.15-.09.36-.21.5-.05.06-.15.02-.14-.06Z"/>
      </g>
      <text class="cls-5" transform="translate(0 31.18)"><tspan x="0" y="0" xml:space="preserve">Soul      Quest</tspan></text>
    </g>
  </g>
</svg>