<?xml version="1.0" encoding="UTF-8"?>
<svg id="_Шар_2" data-name="Шар_2" xmlns="http://www.w3.org/2000/svg" viewBox="0 0 280.5 297.5">
  <defs>
    <style>
      .cls-1 {
        fill: #546670;
      }

      .cls-2 {
        fill: none;
        stroke: #546670;
        stroke-linecap: round;
        stroke-miterlimit: 10;
        stroke-width: 12px;
      }
    </style>
  </defs>
  <g id="_Шар_1-2" data-name="Шар_1">
    <g>
      <path class="cls-1" d="M122,12c29.38,0,57.01,11.44,77.78,32.22,20.78,20.78,32.22,48.4,32.22,77.78s-11.44,57.01-32.22,77.78c-20.78,20.78-48.4,32.22-77.78,32.22s-57.01-11.44-77.78-32.22c-20.78-20.78-32.22-48.4-32.22-77.78s11.44-57.01,32.22-77.78C64.99,23.44,92.62,12,122,12M122,0C54.62,0,0,54.62,0,122s54.62,122,122,122,122-54.62,122-122S189.38,0,122,0h0Z"/>
      <line class="cls-2" x1="203.5" y1="212.5" x2="274.5" y2="291.5"/>
    </g>
  </g>
</svg>